<mxfile host="app.diagrams.net" agent="Mozilla/5.0 (Windows NT 10.0; Win64; x64) AppleWebKit/537.36 (KHTML, like Gecko) Chrome/132.0.0.0 Safari/537.36" version="26.0.10">
  <diagram id="R2lEEEUBdFMjLlhIrx00" name="Page-1">
    <mxGraphModel grid="1" page="1" gridSize="10" guides="1" tooltips="1" connect="1" arrows="1" fold="1" pageScale="1" pageWidth="850" pageHeight="1100" math="0" shadow="0" extFonts="Permanent Marker^https://fonts.googleapis.com/css?family=Permanent+Marker">
      <root>
        <mxCell id="0" />
        <mxCell id="1" parent="0" />
        <mxCell id="qinKoHJISIBvl8SZa8lQ-5" value="" style="rounded=1;whiteSpace=wrap;html=1;fillColor=light-dark(#FFE599,var(--ge-dark-color, #121212));" vertex="1" parent="1">
          <mxGeometry x="250" y="30" width="150" height="80" as="geometry" />
        </mxCell>
        <mxCell id="qinKoHJISIBvl8SZa8lQ-6" value="" style="endArrow=none;html=1;rounded=0;entryX=0;entryY=0.25;entryDx=0;entryDy=0;exitX=1;exitY=0.25;exitDx=0;exitDy=0;" edge="1" parent="1">
          <mxGeometry width="50" height="50" relative="1" as="geometry">
            <mxPoint x="400" y="60" as="sourcePoint" />
            <mxPoint x="250" y="60" as="targetPoint" />
          </mxGeometry>
        </mxCell>
        <mxCell id="qinKoHJISIBvl8SZa8lQ-7" value="Account" style="text;html=1;align=center;verticalAlign=middle;whiteSpace=wrap;rounded=0;" vertex="1" parent="1">
          <mxGeometry x="295" y="30" width="60" height="30" as="geometry" />
        </mxCell>
        <mxCell id="qinKoHJISIBvl8SZa8lQ-8" value="" style="rounded=1;whiteSpace=wrap;html=1;fillColor=light-dark(#FFE599,var(--ge-dark-color, #121212));" vertex="1" parent="1">
          <mxGeometry x="430" y="170" width="150" height="80" as="geometry" />
        </mxCell>
        <mxCell id="qinKoHJISIBvl8SZa8lQ-9" value="" style="endArrow=none;html=1;rounded=0;entryX=0;entryY=0.25;entryDx=0;entryDy=0;exitX=1;exitY=0.25;exitDx=0;exitDy=0;" edge="1" parent="1">
          <mxGeometry width="50" height="50" relative="1" as="geometry">
            <mxPoint x="580" y="200" as="sourcePoint" />
            <mxPoint x="430" y="200" as="targetPoint" />
          </mxGeometry>
        </mxCell>
        <mxCell id="qinKoHJISIBvl8SZa8lQ-10" value="Contact" style="text;html=1;align=center;verticalAlign=middle;whiteSpace=wrap;rounded=0;" vertex="1" parent="1">
          <mxGeometry x="475" y="170" width="60" height="30" as="geometry" />
        </mxCell>
        <mxCell id="qinKoHJISIBvl8SZa8lQ-11" value="" style="rounded=1;whiteSpace=wrap;html=1;fillColor=light-dark(#FFE599,var(--ge-dark-color, #121212));" vertex="1" parent="1">
          <mxGeometry x="620" y="30" width="150" height="80" as="geometry" />
        </mxCell>
        <mxCell id="qinKoHJISIBvl8SZa8lQ-12" value="" style="endArrow=none;html=1;rounded=0;entryX=0;entryY=0.25;entryDx=0;entryDy=0;exitX=1;exitY=0.25;exitDx=0;exitDy=0;" edge="1" parent="1">
          <mxGeometry width="50" height="50" relative="1" as="geometry">
            <mxPoint x="770" y="60" as="sourcePoint" />
            <mxPoint x="620" y="60" as="targetPoint" />
          </mxGeometry>
        </mxCell>
        <mxCell id="qinKoHJISIBvl8SZa8lQ-13" value="User" style="text;html=1;align=center;verticalAlign=middle;whiteSpace=wrap;rounded=0;" vertex="1" parent="1">
          <mxGeometry x="665" y="30" width="60" height="30" as="geometry" />
        </mxCell>
        <mxCell id="qinKoHJISIBvl8SZa8lQ-14" value="" style="rounded=1;whiteSpace=wrap;html=1;fillColor=light-dark(#D4E1F5,var(--ge-dark-color, #121212));" vertex="1" parent="1">
          <mxGeometry x="810" y="170" width="150" height="80" as="geometry" />
        </mxCell>
        <mxCell id="qinKoHJISIBvl8SZa8lQ-15" value="" style="endArrow=none;html=1;rounded=0;entryX=0;entryY=0.25;entryDx=0;entryDy=0;exitX=1;exitY=0.25;exitDx=0;exitDy=0;" edge="1" parent="1">
          <mxGeometry width="50" height="50" relative="1" as="geometry">
            <mxPoint x="960" y="200" as="sourcePoint" />
            <mxPoint x="810" y="200" as="targetPoint" />
          </mxGeometry>
        </mxCell>
        <mxCell id="qinKoHJISIBvl8SZa8lQ-16" value="Property" style="text;html=1;align=center;verticalAlign=middle;whiteSpace=wrap;rounded=0;" vertex="1" parent="1">
          <mxGeometry x="855" y="170" width="60" height="30" as="geometry" />
        </mxCell>
        <mxCell id="qinKoHJISIBvl8SZa8lQ-19" value="" style="rounded=1;whiteSpace=wrap;html=1;fillColor=light-dark(#D4E1F5,var(--ge-dark-color, #121212));" vertex="1" parent="1">
          <mxGeometry x="620" y="170" width="150" height="80" as="geometry" />
        </mxCell>
        <mxCell id="qinKoHJISIBvl8SZa8lQ-20" value="" style="endArrow=none;html=1;rounded=0;entryX=0;entryY=0.25;entryDx=0;entryDy=0;exitX=1;exitY=0.25;exitDx=0;exitDy=0;" edge="1" parent="1">
          <mxGeometry width="50" height="50" relative="1" as="geometry">
            <mxPoint x="770" y="200" as="sourcePoint" />
            <mxPoint x="620" y="200" as="targetPoint" />
          </mxGeometry>
        </mxCell>
        <mxCell id="qinKoHJISIBvl8SZa8lQ-21" value="Favorited Properties" style="text;html=1;align=center;verticalAlign=middle;whiteSpace=wrap;rounded=0;" vertex="1" parent="1">
          <mxGeometry x="665" y="170" width="60" height="30" as="geometry" />
        </mxCell>
        <mxCell id="qinKoHJISIBvl8SZa8lQ-23" value="" style="edgeStyle=entityRelationEdgeStyle;fontSize=12;html=1;endArrow=ERoneToMany;rounded=0;entryX=1;entryY=0.5;entryDx=0;entryDy=0;exitX=0;exitY=0.5;exitDx=0;exitDy=0;fillColor=#FF0000;strokeColor=light-dark(#FF0000,#FFFFFF);" edge="1" parent="1" source="qinKoHJISIBvl8SZa8lQ-14" target="qinKoHJISIBvl8SZa8lQ-19">
          <mxGeometry width="100" height="100" relative="1" as="geometry">
            <mxPoint x="710" y="190" as="sourcePoint" />
            <mxPoint x="810" y="90" as="targetPoint" />
          </mxGeometry>
        </mxCell>
        <mxCell id="qinKoHJISIBvl8SZa8lQ-24" value="" style="edgeStyle=entityRelationEdgeStyle;fontSize=12;html=1;endArrow=ERoneToMany;rounded=0;exitX=1;exitY=0.5;exitDx=0;exitDy=0;entryX=0;entryY=0.5;entryDx=0;entryDy=0;strokeColor=light-dark(#FF0000,#FFFFFF);" edge="1" parent="1" source="qinKoHJISIBvl8SZa8lQ-8" target="qinKoHJISIBvl8SZa8lQ-19">
          <mxGeometry width="100" height="100" relative="1" as="geometry">
            <mxPoint x="720" y="290" as="sourcePoint" />
            <mxPoint x="670" y="320" as="targetPoint" />
          </mxGeometry>
        </mxCell>
        <mxCell id="qinKoHJISIBvl8SZa8lQ-26" value="" style="edgeStyle=entityRelationEdgeStyle;fontSize=12;html=1;endArrow=ERoneToMany;rounded=0;entryX=0;entryY=0.5;entryDx=0;entryDy=0;exitX=1;exitY=0.5;exitDx=0;exitDy=0;strokeColor=light-dark(#0000FF,#FFFFFF);" edge="1" parent="1" source="qinKoHJISIBvl8SZa8lQ-5" target="qinKoHJISIBvl8SZa8lQ-8">
          <mxGeometry width="100" height="100" relative="1" as="geometry">
            <mxPoint x="454.9999999999998" y="80" as="sourcePoint" />
            <mxPoint x="409.9999999999998" y="200" as="targetPoint" />
            <Array as="points">
              <mxPoint x="460" y="340" />
            </Array>
          </mxGeometry>
        </mxCell>
        <mxCell id="qinKoHJISIBvl8SZa8lQ-28" value="" style="edgeStyle=entityRelationEdgeStyle;fontSize=12;html=1;endArrow=ERmandOne;startArrow=ERmandOne;rounded=0;exitX=0.75;exitY=0;exitDx=0;exitDy=0;entryX=0;entryY=0.5;entryDx=0;entryDy=0;strokeColor=light-dark(#0000FF,#FFFFFF);" edge="1" parent="1" source="qinKoHJISIBvl8SZa8lQ-8" target="qinKoHJISIBvl8SZa8lQ-11">
          <mxGeometry width="100" height="100" relative="1" as="geometry">
            <mxPoint x="700" y="210" as="sourcePoint" />
            <mxPoint x="800" y="110" as="targetPoint" />
          </mxGeometry>
        </mxCell>
      </root>
    </mxGraphModel>
  </diagram>
</mxfile>
